<?xml version="1.0" standalone="no"?>
<!DOCTYPE svg PUBLIC "-//W3C//DTD SVG 20010904//EN"
 "http://www.w3.org/TR/2001/REC-SVG-20010904/DTD/svg10.dtd">
<svg version="1.0" xmlns="http://www.w3.org/2000/svg"
 width="389.000000pt" height="389.000000pt" viewBox="0 0 389.000000 389.000000"
 preserveAspectRatio="xMidYMid meet">
<metadata>
Created by potrace 1.11, written by Peter Selinger 2001-2013
</metadata>
<g transform="translate(0.000000,389.000000) scale(0.100000,-0.100000)"
fill="#000000" stroke="none">
<path d="M2324 3770 c-66 -15 -142 -90 -191 -190 -40 -81 -78 -197 -88 -268
-2 -15 -8 -58 -15 -97 -10 -67 -18 -149 -19 -207 -1 -16 -6 -28 -12 -28 -6 0
-8 9 -4 21 5 16 4 19 -5 14 -8 -5 -11 -4 -6 3 3 6 2 13 -4 17 -5 3 -10 11 -10
17 0 6 6 6 15 -2 9 -7 18 -10 22 -6 3 3 1 6 -6 6 -7 0 -11 6 -8 14 3 7 0 13
-6 12 -7 0 -13 2 -15 6 -2 4 -9 22 -16 40 -7 18 -11 39 -8 47 3 8 0 11 -7 7
-6 -4 -11 -3 -11 3 0 5 6 12 13 14 9 4 9 6 -1 6 -7 1 -23 26 -37 57 -19 44
-23 60 -14 71 10 11 8 12 -6 7 -12 -5 -16 -4 -12 3 4 6 0 13 -8 17 -8 3 -15
13 -15 23 0 10 -7 27 -15 37 -8 10 -12 23 -9 27 3 5 0 9 -6 9 -7 0 -10 7 -6
15 3 8 2 14 -2 12 -4 -1 -8 2 -9 6 -1 5 -13 17 -27 28 -15 11 -26 25 -26 31 0
15 -69 76 -101 90 -15 7 -26 15 -24 18 6 10 -105 11 -124 1 -22 -12 -75 -96
-78 -126 -2 -11 -4 -30 -4 -43 -1 -16 -15 -32 -43 -50 -22 -14 -44 -25 -48
-24 -4 1 -5 -5 -2 -13 4 -9 0 -15 -10 -15 -9 0 -16 -7 -16 -15 0 -14 12 -19
33 -16 14 2 7 -12 -17 -34 -22 -21 -24 -21 -35 -3 -6 10 -16 16 -21 13 -6 -3
-10 -1 -10 5 0 6 -5 8 -12 4 -7 -4 -8 -3 -4 5 6 9 14 8 33 -4 18 -12 28 -14
36 -6 8 8 8 11 0 11 -6 0 -13 11 -15 25 -4 20 2 31 32 55 20 16 41 26 45 22 5
-4 5 -2 2 5 -4 6 -1 13 5 16 7 2 10 8 5 12 -4 5 -22 -5 -39 -21 -19 -16 -24
-19 -14 -6 11 12 16 25 13 29 -7 6 -87 -74 -87 -88 0 -6 -40 -21 -64 -23 -5
-1 -19 -15 -33 -32 -20 -27 -21 -32 -8 -38 9 -3 13 -2 10 4 -3 5 -1 18 5 27 8
15 10 13 7 -12 -3 -19 -10 -30 -19 -29 -8 1 -15 -6 -15 -15 1 -20 -23 -71 -33
-71 -4 0 -13 -13 -20 -30 -7 -17 -17 -27 -24 -23 -6 3 -8 3 -4 -1 4 -5 -2 -17
-13 -29 -10 -11 -19 -26 -18 -31 0 -6 3 -5 6 2 2 6 9 10 14 6 5 -3 9 2 9 11 0
10 5 13 12 9 7 -4 8 -3 4 4 -4 7 -2 12 3 12 6 0 11 7 11 16 0 8 5 12 10 9 6
-3 10 4 10 16 0 12 3 20 6 16 8 -8 33 16 27 26 -2 4 0 7 5 7 6 0 13 -7 16 -16
3 -8 2 -12 -3 -9 -5 3 -12 1 -16 -5 -3 -5 -1 -10 6 -10 8 0 8 -4 -1 -15 -7 -8
-9 -15 -6 -15 4 0 -5 -11 -19 -25 -14 -14 -25 -34 -25 -43 1 -13 6 -11 23 10
20 25 47 31 63 15 4 -3 -3 -5 -15 -2 -20 4 -20 3 -6 -18 18 -26 21 -82 3 -71
-6 4 -8 3 -4 -4 3 -6 2 -13 -4 -17 -14 -8 -13 -35 1 -35 6 0 8 8 5 18 -5 14
-3 13 10 -3 16 -20 16 -20 9 3 -4 13 -2 22 5 22 6 0 8 4 5 10 -3 6 1 7 10 3
11 -4 13 -8 6 -12 -7 -5 -5 -14 8 -27 10 -11 24 -30 30 -42 8 -16 19 -21 36
-18 14 3 26 -1 29 -10 3 -8 13 -14 21 -14 9 0 14 4 11 9 -10 15 6 43 20 37 7
-3 16 -1 19 4 3 5 -4 11 -14 15 -20 6 -20 6 0 26 24 24 38 25 15 0 -16 -17
-16 -19 0 -25 13 -5 14 -9 4 -21 -7 -8 -16 -12 -21 -9 -9 5 -10 1 -13 -35 0
-11 -5 -23 -10 -28 -5 -5 -6 -3 -2 5 4 7 1 12 -8 12 -19 0 -20 -11 -3 -29 10
-11 10 -13 0 -7 -9 5 -13 0 -13 -14 0 -24 -24 -53 -34 -42 -4 3 -4 -2 0 -11 6
-17 7 -17 24 0 9 11 20 25 23 33 3 10 6 7 6 -7 1 -13 -4 -23 -10 -23 -5 0 -7
-4 -4 -10 3 -5 1 -10 -6 -10 -7 0 -10 -3 -6 -6 3 -3 -3 -15 -14 -27 -29 -31
-23 -53 6 -23 8 7 11 16 8 20 -4 3 -1 6 5 6 7 0 12 6 12 13 0 7 16 30 35 52
32 36 34 37 20 10 -8 -16 -15 -36 -15 -42 0 -7 -3 -12 -7 -12 -20 3 -26 -2
-13 -11 10 -6 11 -10 3 -10 -7 0 -13 -7 -13 -15 0 -8 -4 -15 -9 -15 -5 0 -11
-10 -14 -21 -4 -13 -11 -20 -20 -16 -8 3 -20 1 -28 -4 -11 -7 -10 -11 6 -24
13 -10 15 -14 5 -13 -8 2 -21 11 -28 21 -18 23 -29 22 -43 -5 -9 -19 -9 -21 2
-10 15 14 33 16 25 3 -3 -5 5 -12 19 -15 14 -4 24 -10 24 -14 -3 -19 2 -23 16
-12 9 7 18 10 22 6 3 -3 0 -6 -8 -6 -8 0 7 -11 33 -25 50 -27 78 -32 78 -14 0
6 -9 8 -20 4 -14 -4 -20 -2 -20 8 0 8 -7 18 -16 21 -22 9 -26 8 -18 -6 4 -6 3
-8 -4 -4 -6 3 -8 19 -6 34 4 22 3 25 -7 15 -7 -7 -17 -13 -22 -13 -5 0 1 9 14
21 13 11 18 18 12 14 -19 -9 -15 9 7 35 11 12 17 27 14 31 -3 5 -1 9 4 9 5 0
12 9 15 20 3 13 14 20 30 20 28 0 44 -15 27 -25 -5 -3 -10 -1 -10 4 0 6 -5 11
-12 11 -6 0 -3 -9 7 -20 10 -11 13 -20 7 -20 -7 0 -11 -6 -9 -12 1 -7 -3 -12
-10 -11 -7 2 -10 -4 -6 -13 3 -9 0 -20 -8 -25 -11 -7 -11 -9 4 -9 9 0 17 7 17
16 0 9 5 12 12 8 7 -4 8 -3 4 4 -4 7 -2 12 4 12 6 0 8 5 5 10 -3 6 -1 10 5 10
6 0 9 4 5 9 -3 5 -1 12 5 16 5 3 10 -1 10 -10 0 -12 6 -15 23 -11 12 3 16 3
10 0 -7 -3 -13 -10 -13 -15 0 -6 3 -8 8 -6 8 4 43 -29 36 -36 -2 -2 3 -4 11
-4 22 0 18 15 -6 22 -11 4 -18 9 -16 12 9 8 47 -17 47 -31 0 -13 27 -31 42
-28 4 1 5 -5 1 -14 -3 -8 -11 -13 -19 -10 -7 3 -14 2 -16 -2 -2 -4 -27 -20
-55 -35 -41 -22 -51 -24 -46 -12 5 16 3 16 -28 0 -46 -24 -48 -27 -15 -21 23
4 26 3 16 -10 -7 -7 -17 -14 -22 -14 -6 0 -24 -12 -41 -26 -16 -14 -33 -22
-36 -17 -3 4 -22 10 -41 13 -51 7 -259 6 -301 -1 -206 -36 -389 -191 -464
-394 -23 -60 -27 -88 -29 -198 -1 -71 1 -130 6 -133 4 -3 8 -16 8 -28 0 -13
11 -49 25 -80 14 -32 22 -62 19 -68 -4 -6 -2 -8 3 -5 6 4 18 -4 27 -18 9 -14
14 -25 12 -25 -2 0 13 -18 35 -41 21 -22 36 -46 33 -51 -4 -6 -2 -8 3 -5 6 4
26 -7 45 -23 34 -29 39 -46 42 -142 1 -14 4 -24 9 -21 4 2 7 -5 7 -16 0 -11 5
-31 11 -45 9 -20 9 -29 -1 -41 -11 -13 -10 -15 2 -10 10 4 19 -6 28 -37 8 -24
14 -49 13 -55 0 -7 4 -13 9 -13 6 0 7 -7 4 -16 -3 -8 -2 -13 3 -10 8 5 59 -93
53 -102 -2 -3 0 -8 5 -11 18 -12 44 -62 38 -72 -4 -5 -1 -8 7 -7 7 2 12 -3 10
-9 -1 -7 2 -13 6 -13 5 0 30 -30 58 -67 27 -38 57 -76 67 -86 10 -10 15 -23
11 -29 -4 -7 -3 -8 4 -4 7 4 12 2 12 -3 0 -6 5 -11 10 -11 15 0 76 -72 72 -84
-2 -6 0 -8 4 -4 4 4 20 -2 36 -14 22 -15 28 -26 24 -42 -5 -20 -5 -21 9 -2 13
18 20 15 16 -6 0 -5 2 -7 7 -7 17 3 29 -2 48 -18 10 -10 36 -27 57 -38 20 -11
37 -24 37 -29 0 -5 3 -7 6 -3 4 3 38 -10 78 -30 39 -21 73 -37 76 -38 48 -10
70 -18 70 -25 0 -5 7 -7 15 -4 10 4 15 0 16 -12 0 -11 3 -14 5 -8 6 14 54 5
54 -10 0 -6 5 -4 10 4 8 12 10 12 10 -5 0 -14 3 -16 8 -7 9 13 42 7 42 -7 0
-4 12 -13 28 -20 l27 -12 -25 20 c-25 20 -25 20 -2 18 12 -1 22 -4 22 -8 0 -3
23 -5 51 -4 35 1 52 -2 56 -11 3 -8 15 -14 27 -13 20 0 20 1 1 9 -14 6 -4 8
33 7 28 -1 52 -5 52 -9 0 -4 5 -8 11 -8 5 0 7 5 4 10 -3 6 -1 10 6 10 6 0 9
-8 7 -18 -3 -11 0 -19 7 -19 7 0 10 10 7 25 -3 17 -1 23 7 18 6 -4 8 -13 4
-19 -4 -7 1 -5 11 3 10 7 37 15 59 16 23 2 56 4 72 6 25 2 30 0 28 -17 -1 -11
0 -14 3 -7 3 6 9 10 13 8 4 -3 8 1 8 9 0 8 -4 12 -9 9 -4 -3 -8 -1 -8 5 0 5 8
10 18 10 25 0 70 8 80 15 4 3 22 -2 38 -10 l29 -14 -24 20 c-17 15 -19 20 -8
20 9 0 19 -5 22 -10 8 -13 25 -13 25 1 0 5 -4 7 -10 4 -5 -3 -10 -2 -10 3 0 9
13 14 55 23 6 2 16 8 23 15 7 7 21 11 31 9 11 -2 22 3 25 11 3 9 10 13 15 10
5 -3 14 1 21 9 7 8 16 12 21 10 4 -3 17 3 29 15 25 25 48 27 29 3 -11 -15 -10
-14 9 1 23 20 30 32 12 21 -5 -3 -10 -2 -10 2 0 8 39 37 51 38 3 0 13 8 23 18
10 9 22 17 27 17 6 0 -4 -12 -22 -28 -18 -15 -37 -26 -42 -24 -5 1 -5 -3 -1
-9 5 -8 3 -9 -6 -4 -9 6 -11 4 -5 -4 4 -7 -3 -23 -16 -39 l-24 -27 28 25 c16
14 31 23 34 22 2 -2 8 0 11 4 4 4 1 4 -5 0 -7 -4 -13 -3 -13 2 0 16 13 22 27
11 9 -9 13 -8 13 0 0 6 -6 11 -12 11 -7 0 -3 10 9 22 17 17 25 19 36 10 14
-12 27 -6 27 12 0 6 -5 4 -10 -4 -5 -8 -10 -13 -11 -10 0 3 -2 15 -5 28 -2 12
1 22 6 22 5 0 22 13 36 29 14 17 32 27 40 24 8 -3 12 -9 9 -14 -3 -4 -12 -6
-19 -3 -16 6 -31 -12 -17 -21 6 -3 8 -12 5 -19 -3 -8 -1 -17 5 -21 7 -3 8 0 5
9 -4 10 -1 16 7 16 8 0 5 6 -7 16 -18 15 -18 15 4 9 14 -4 22 -2 22 6 0 8 5 8
18 -2 10 -8 8 -3 -5 11 l-22 25 25 28 c22 26 29 27 25 4 -1 -5 3 -6 9 -2 5 3
10 1 10 -4 0 -6 5 -11 10 -11 6 0 9 6 8 13 -2 6 3 11 10 9 8 -1 11 2 7 8 -5 8
-11 8 -20 0 -9 -8 -14 -7 -18 5 -6 15 29 42 41 31 3 -3 -1 -6 -9 -6 -12 0 -12
-2 1 -9 21 -14 33 -2 18 17 -11 13 -10 15 4 9 12 -4 21 0 28 13 6 11 18 17 30
15 17 -3 19 -1 10 16 -13 24 -21 25 -14 2 5 -15 3 -15 -11 2 -15 19 -15 21 5
37 11 9 20 21 20 27 0 5 9 16 20 24 11 8 17 17 14 20 -4 4 1 9 10 13 9 3 13
10 10 15 -3 5 0 8 7 7 7 -2 13 2 14 9 0 7 6 18 13 25 6 6 12 18 12 25 0 7 7
13 16 13 14 0 14 -3 4 -15 -7 -8 -9 -15 -4 -15 5 -1 -2 -7 -16 -15 -14 -8 -19
-14 -12 -15 6 0 12 -7 12 -15 0 -8 5 -15 11 -15 5 0 7 4 4 10 -9 15 14 52 28
43 8 -4 8 -2 -1 9 -8 10 -9 19 -3 22 5 3 12 1 14 -4 3 -6 4 -5 2 2 -1 7 -8 12
-14 11 -6 -2 -10 8 -9 21 1 14 6 22 11 19 4 -3 7 1 6 8 -3 19 11 49 23 49 6 0
5 -6 -2 -15 -7 -9 -8 -15 -2 -15 16 0 22 26 9 40 -9 10 -9 12 4 7 23 -7 41 7
33 26 -3 9 -10 15 -14 12 -5 -3 -6 4 -3 16 3 11 12 23 19 26 8 3 11 9 8 14 -3
6 0 16 6 24 6 8 8 20 4 26 -4 7 -3 9 3 6 6 -4 18 2 28 13 10 11 14 20 9 20 -5
0 2 10 16 21 14 11 20 18 13 15 -6 -4 -14 -2 -18 4 -4 6 -11 8 -16 4 -6 -3 -7
6 -4 23 3 15 8 42 10 58 3 17 7 44 11 60 3 17 6 63 7 104 1 49 6 76 15 78 6 3
12 9 12 14 0 4 -7 5 -17 2 -10 -4 -14 -2 -9 5 3 6 2 13 -4 17 -7 4 -7 12 0 25
5 10 6 20 1 22 -5 2 -12 24 -15 51 -4 26 -11 58 -16 72 -5 14 -7 25 -5 25 3 0
-1 16 -9 35 -8 19 -12 35 -8 35 3 0 1 5 -6 12 -17 17 -15 28 6 28 13 0 11 3
-7 13 -33 16 -45 63 -26 100 8 16 13 33 10 37 -3 4 2 10 10 14 8 3 19 -3 24
-12 10 -16 10 -16 11 1 0 16 -12 22 -34 18 -5 -1 -4 4 2 12 7 8 8 17 4 22 -4
4 0 5 8 3 8 -3 14 -11 12 -17 -1 -7 2 -10 8 -6 6 4 5 12 -2 25 -7 10 -16 16
-22 13 -5 -4 -6 -1 -1 8 5 7 9 28 10 47 0 18 7 37 15 42 12 8 11 10 -5 10 -17
0 -17 2 -5 10 8 5 10 10 3 10 -6 0 -10 12 -8 28 2 15 -2 36 -8 47 -9 17 -8 18
5 8 12 -10 15 -10 15 2 0 8 -7 15 -16 16 -11 0 -12 2 -3 6 10 4 9 8 -5 19 -16
12 -16 13 -1 14 9 0 19 4 22 8 3 5 -5 8 -17 8 -13 -1 -22 5 -22 14 -1 8 -6 25
-13 38 -7 12 -9 22 -5 22 4 0 4 4 -2 8 -19 13 -51 57 -35 47 9 -6 3 2 -14 16
-20 18 -27 32 -23 43 4 11 3 15 -4 10 -6 -4 -26 9 -43 27 -18 19 -41 39 -52
46 -10 6 -18 16 -17 21 1 5 -5 9 -15 8 -9 0 -16 5 -14 12 1 8 -2 11 -7 8 -5
-4 -27 2 -48 13 -42 22 -94 44 -106 45 -4 1 -12 8 -17 16 -5 8 -10 10 -10 3 0
-6 -9 -9 -20 -6 -11 3 -20 9 -20 14 0 5 7 6 15 3 8 -4 15 -1 15 4 0 6 -9 9
-20 7 -22 -4 -36 10 -20 20 6 4 7 12 1 24 -7 13 -6 18 5 18 7 0 12 -2 10 -5
-2 -2 3 -12 12 -21 12 -12 21 -15 30 -8 9 7 11 6 6 -7 -3 -9 -1 -16 6 -16 6 0
9 4 6 9 -3 5 1 14 9 21 12 10 15 10 15 0 0 -8 2 -11 5 -8 9 9 -6 38 -20 38 -7
0 -16 7 -19 16 -4 11 -2 15 7 11 8 -3 14 1 14 7 0 8 -10 12 -24 10 -14 -1 -21
2 -16 9 4 6 0 8 -9 5 -9 -4 -15 0 -15 8 0 17 9 18 25 2 8 -8 12 -8 12 -1 0 17
-28 35 -42 28 -7 -4 -4 1 6 9 11 9 27 14 35 11 9 -2 23 0 31 6 13 9 13 10 -1
6 -9 -3 -21 -1 -27 5 -7 7 -16 8 -25 2 -7 -5 -4 -1 6 9 13 12 15 17 6 17 -11
0 -11 2 1 10 13 8 13 10 1 10 -11 0 -9 4 5 15 10 8 15 15 11 15 -4 0 -3 9 3
20 6 11 7 20 3 20 -11 0 -37 -60 -38 -85 0 -14 -6 -19 -20 -17 -15 2 -16 0 -7
-6 15 -10 15 -21 0 -39 -5 -7 -7 -18 -3 -25 3 -7 -6 1 -20 17 -15 17 -24 24
-20 16 6 -10 4 -12 -4 -6 -7 4 -11 15 -8 25 3 13 0 16 -12 13 -10 -2 -23 2
-29 10 -10 12 -8 14 13 11 20 -2 24 1 16 10 -7 8 -6 21 4 40 8 16 15 37 15 48
0 12 5 18 13 15 8 -3 12 6 13 26 1 17 6 33 12 35 5 1 8 13 5 25 -4 21 -4 21
10 4 11 -14 16 -15 20 -5 4 8 6 7 6 -4 1 -22 21 -24 21 -2 0 9 -8 18 -18 20
-9 3 -22 16 -28 29 -11 23 -10 24 8 14 10 -6 22 -17 25 -25 3 -7 9 -12 13 -9
4 3 13 -2 20 -10 9 -11 9 -15 1 -15 -7 0 -10 -4 -6 -10 3 -5 13 -7 23 -4 12 4
13 3 4 -3 -10 -7 -8 -14 8 -28 11 -10 20 -25 19 -34 0 -13 -2 -13 -6 -1 -9 21
-53 67 -53 54 0 -5 6 -16 13 -23 10 -11 10 -13 0 -7 -7 4 -14 2 -14 -3 -1 -6
-2 -17 -3 -23 -2 -15 15 -29 26 -22 4 3 8 10 8 15 0 6 -4 8 -9 4 -5 -3 -12 -1
-15 4 -4 5 1 8 9 7 23 -3 29 -14 15 -31 -8 -9 -8 -15 -2 -15 6 0 13 4 17 10 3
5 12 7 20 3 11 -4 14 0 9 13 -6 15 -4 16 6 7 15 -14 4 -35 -17 -31 -9 2 -18
-3 -20 -10 -3 -8 2 -10 14 -6 15 5 15 4 3 -5 -8 -5 -11 -14 -6 -18 4 -4 15 2
23 15 16 23 33 29 33 11 0 -5 -4 -7 -10 -4 -5 3 -10 -1 -10 -9 0 -9 4 -16 9
-16 14 0 33 28 27 39 -3 5 2 8 11 6 10 -2 21 -4 25 -4 4 -1 9 -9 12 -19 7 -22
36 -25 36 -5 0 8 -4 12 -9 8 -5 -3 -12 4 -16 15 -3 11 -13 20 -21 20 -8 0 -14
10 -14 26 0 15 4 23 11 19 6 -4 8 -14 5 -22 -3 -8 -2 -11 3 -8 12 7 63 -39 54
-48 -3 -4 1 -7 9 -7 9 0 18 -5 20 -12 3 -7 11 -9 24 -3 17 7 18 8 1 12 -9 3
-15 9 -12 14 4 5 -1 9 -9 9 -9 0 -16 4 -16 10 0 5 -12 21 -27 36 -16 15 -23
24 -16 20 6 -3 15 -2 18 4 4 6 3 10 -2 9 -20 -3 -34 2 -28 11 3 6 0 10 -8 10
-8 0 -18 7 -21 16 -3 8 -2 13 2 10 5 -3 8 8 8 23 0 23 -3 27 -21 24 -13 -3
-28 4 -40 19 l-20 23 21 -17 c19 -17 44 -24 44 -13 0 2 -5 15 -12 29 -8 19
-15 23 -23 16 -18 -15 -45 -2 -37 18 5 15 4 15 -11 3 -14 -11 -17 -11 -17 0
-1 9 -5 8 -15 -5 -8 -11 -15 -14 -15 -7 0 7 -4 9 -10 6 -5 -3 -10 -1 -10 5 0
7 7 10 15 6 9 -3 15 0 15 10 0 9 -5 12 -12 8 -8 -5 -9 -2 -5 10 4 9 3 15 -1
12 -5 -3 -16 4 -26 16 -12 13 -26 19 -42 15 -13 -2 -24 0 -24 4 0 5 6 9 14 9
8 0 14 9 13 20 -1 10 -3 17 -5 15 -3 -2 -17 2 -33 10 -23 12 -27 21 -24 43 2
17 -2 29 -8 30 -7 0 -24 3 -39 6 -18 4 -32 1 -44 -11 -16 -16 -16 -16 -10 4 6
17 3 20 -11 17 -11 -3 -37 9 -63 28 -53 40 -88 56 -113 52 -12 -1 -23 9 -34
31 -11 23 -30 39 -62 53 -49 21 -68 23 -117 12z m262 -127 c12 -7 24 -10 28
-8 3 3 4 2 1 -2 -3 -3 5 -11 18 -17 12 -7 28 -25 36 -41 13 -26 15 -27 21 -10
6 18 7 18 12 -2 7 -25 -18 -25 -37 0 -13 19 -30 24 -19 6 3 -6 -5 -4 -18 5
-14 9 -28 13 -31 9 -6 -6 -11 11 -8 30 2 14 -8 7 -20 -14 -8 -17 -8 -20 1 -14
9 5 10 1 5 -14 -4 -13 -2 -21 5 -21 6 0 8 5 5 10 -9 15 11 12 24 -3 6 -8 8
-17 4 -21 -4 -4 5 -5 21 -2 16 3 26 3 23 0 -9 -9 26 -43 37 -37 6 3 5 0 -2 -8
-10 -11 -15 -9 -28 9 -15 21 -34 22 -34 1 0 -6 4 -8 8 -5 4 2 13 -4 20 -14 9
-14 9 -21 0 -26 -7 -5 -8 -3 -3 6 6 9 4 12 -7 8 -17 -7 -42 27 -32 45 4 7 3 8
-2 4 -16 -15 -11 -52 10 -72 10 -11 15 -13 11 -5 -7 13 -6 13 8 0 8 -8 18 -30
21 -49 6 -43 36 -66 52 -40 7 12 24 -6 24 -26 0 -5 -5 -3 -10 5 -9 13 -11 13
-20 0 -13 -20 -13 -33 1 -24 6 3 24 -3 40 -15 29 -21 29 -21 29 -1 0 11 -5 19
-11 18 -6 -2 -14 4 -16 12 -3 10 -2 11 4 4 4 -6 16 -10 25 -8 10 1 21 -3 25
-8 3 -6 1 -8 -5 -4 -6 4 -12 -3 -14 -16 -2 -13 -9 -22 -15 -21 -16 3 -24 -24
-8 -31 7 -2 16 2 19 10 3 8 10 14 16 14 5 0 2 -9 -7 -19 -13 -16 -20 -17 -39
-9 -21 10 -21 12 -7 26 14 14 13 17 -3 29 -21 16 -34 17 -34 3 0 -5 7 -10 15
-10 8 0 15 -4 15 -10 0 -5 -6 -7 -14 -4 -21 8 -14 -26 9 -42 19 -14 18 -15 -3
-30 -18 -13 -21 -19 -11 -30 6 -8 8 -14 3 -14 -5 0 -2 -5 6 -10 13 -8 12 -10
-3 -10 -11 0 -17 6 -15 16 2 10 -2 19 -7 21 -19 6 -11 -42 10 -60 19 -18 19
-18 -8 -1 -20 12 -26 22 -22 35 4 11 2 19 -4 19 -6 0 -11 -4 -11 -10 0 -5 -4
-10 -8 -10 -5 0 -9 7 -9 15 0 8 4 12 8 10 4 -3 6 10 5 28 -1 29 1 32 27 30 23
-2 27 1 18 11 -6 7 -8 16 -4 19 3 4 1 7 -5 7 -7 0 -12 -4 -12 -10 0 -5 -4 -10
-8 -10 -4 0 -8 15 -8 34 0 19 4 32 8 30 4 -3 8 0 8 5 0 6 -6 11 -12 11 -9 0
-8 4 2 10 13 8 13 10 -1 10 -12 0 -16 -10 -16 -37 0 -38 -9 -102 -20 -137 -5
-19 -6 -19 -19 -1 -8 10 -14 15 -14 11 0 -5 -6 -3 -13 3 -8 6 -17 8 -20 4 -4
-3 -7 0 -7 8 -1 10 -4 8 -11 -4 -6 -10 -8 -21 -5 -24 3 -4 6 -1 6 5 0 15 33
-3 68 -36 13 -12 27 -20 32 -17 11 7 7 -22 -5 -32 -4 -4 -5 -3 -1 4 9 17 -12
27 -29 13 -16 -14 -10 -34 7 -24 7 4 8 2 4 -5 -6 -8 -12 -9 -20 -2 -7 6 -17 7
-21 3 -5 -4 -5 1 -1 12 5 14 2 17 -9 12 -9 -3 -18 1 -21 9 -3 8 -12 11 -21 8
-11 -4 -14 -2 -9 5 4 8 2 10 -7 6 -8 -3 -18 0 -22 6 -5 8 1 11 16 10 36 -3 49
-1 49 8 0 5 -7 9 -15 10 -8 1 -22 3 -30 4 -8 1 -11 6 -7 12 3 6 7 20 8 31 1
11 6 31 11 45 5 14 8 35 7 48 -1 12 3 25 8 28 4 3 5 11 2 17 -4 8 -2 7 7 -1
10 -9 10 -15 3 -20 -6 -4 -10 -18 -9 -32 1 -14 -2 -34 -6 -45 -9 -19 -9 -19 3
-1 7 11 24 31 38 45 l25 25 -29 -18 c-31 -20 -30 -21 -10 28 3 7 -2 21 -11 30
-9 9 -12 16 -8 16 5 0 18 7 29 16 18 14 18 15 -4 4 -13 -7 -26 -9 -30 -6 -3 3
-1 6 4 6 6 0 10 20 9 44 -2 39 1 44 18 41 14 -3 17 0 13 11 -3 9 -6 20 -6 25
0 5 -5 9 -11 9 -5 0 -7 -4 -4 -10 3 -5 1 -10 -5 -10 -7 0 -9 7 -6 16 3 9 3 21
-1 27 -4 7 -8 18 -9 27 -2 8 -4 26 -6 40 -3 14 -7 31 -11 37 -8 14 22 11 49
-4z m195 -72 c7 11 9 10 9 -3 0 -10 5 -18 11 -18 5 0 7 5 3 12 -5 7 -3 8 5 3
8 -5 9 -11 3 -17 -12 -12 -52 7 -51 25 0 8 2 7 6 -2 5 -11 7 -11 14 0z m9 -47
c0 -2 -9 0 -20 6 -11 6 -20 13 -20 16 0 2 9 0 20 -6 11 -6 20 -13 20 -16z
m-60 6 c0 -5 -5 -10 -11 -10 -5 0 -7 5 -4 10 3 6 8 10 11 10 2 0 4 -4 4 -10z
m29 -24 c9 -11 9 -16 -1 -22 -7 -4 -10 -4 -6 1 4 4 3 14 -3 22 -6 7 -9 13 -6
13 2 0 10 -6 16 -14z m106 -35 c-3 -2 -17 5 -32 15 -15 10 -32 17 -36 16 -5
-1 -6 2 -2 8 3 6 19 1 40 -13 18 -12 32 -24 30 -26z m-148 4 c-9 -7 -13 -16
-9 -20 4 -5 1 -5 -5 -1 -7 4 -13 2 -13 -3 0 -10 14 -15 33 -12 5 1 6 -3 2 -8
-4 -7 -15 -6 -31 1 l-26 12 25 22 c14 12 23 25 19 30 -4 4 -1 4 7 -1 12 -7 11
-10 -2 -20z m51 -30 c-3 -3 -9 2 -12 12 -6 14 -5 15 5 6 7 -7 10 -15 7 -18z
m151 -29 c15 -16 19 -26 12 -31 -7 -3 -11 -3 -10 2 4 22 -2 25 -17 7 -15 -18
-15 -18 -4 3 8 18 7 24 -7 32 -10 6 -13 11 -7 11 6 0 21 -11 33 -24z m-1504 6
c-5 -4 -10 -14 -10 -22 0 -8 -8 -14 -17 -14 -10 1 -16 -2 -13 -6 3 -5 1 -11
-5 -15 -14 -9 -50 -15 -50 -9 0 9 54 60 70 67 22 8 37 8 25 -1z m1402 2 c-3
-3 -12 -4 -19 -1 -8 3 -5 6 6 6 11 1 17 -2 13 -5z m-127 -33 c0 -6 -4 -12 -8
-15 -5 -3 -9 1 -9 9 0 8 4 15 9 15 4 0 8 -4 8 -9z m94 1 c3 -5 -1 -9 -9 -9 -8
0 -12 4 -9 9 3 4 7 8 9 8 2 0 6 -4 9 -8z m-64 -22 c-20 -13 -33 -13 -25 0 3 6
14 10 23 10 15 0 15 -2 2 -10z m-1300 -22 c0 -6 -3 -8 -7 -5 -3 4 -12 -1 -20
-11 -8 -9 -11 -11 -7 -3 5 9 3 12 -4 7 -7 -4 -12 -3 -12 3 0 12 32 31 42 25 5
-3 8 -10 8 -16z m1343 7 c-3 -9 -8 -14 -10 -11 -3 3 -2 9 2 15 9 16 15 13 8
-4z m-1573 -17 c0 -18 -2 -20 -9 -8 -6 8 -7 18 -5 22 9 14 14 9 14 -14z m1660
-3 c14 -19 14 -19 -2 -6 -10 7 -18 18 -18 24 0 6 1 8 3 6 1 -2 9 -13 17 -24z
m54 13 c-5 -8 -2 -9 11 -4 15 5 16 4 5 -9 -17 -21 -30 -19 -30 5 0 11 5 20 11
20 5 0 7 -5 3 -12z m-1496 -33 c6 13 11 14 16 6 4 -7 2 -19 -6 -28 -9 -12 -9
-15 0 -9 6 4 12 2 12 -3 0 -18 -5 -26 -13 -23 -5 1 -6 -2 -2 -8 3 -6 11 -8 16
-5 9 6 18 -9 23 -37 1 -7 8 -24 15 -36 7 -13 10 -26 7 -29 -2 -3 4 -15 15 -26
10 -11 17 -28 14 -38 -3 -10 1 -19 11 -23 15 -6 14 -9 -6 -26 -13 -11 -26 -17
-29 -14 -3 4 0 9 7 11 15 6 16 30 0 39 -8 5 -9 2 -5 -9 3 -10 2 -17 -3 -17
-15 0 -53 -41 -45 -48 4 -4 12 1 19 10 16 22 29 12 16 -13 -7 -12 -7 -20 0
-24 5 -3 10 -1 10 6 0 6 12 23 26 36 24 22 28 23 43 9 13 -14 13 -16 1 -17 -8
-1 -18 -1 -22 0 -4 0 -4 -7 -1 -16 4 -11 3 -14 -6 -9 -6 4 -11 4 -10 -1 1 -4
1 -15 0 -23 -1 -13 -2 -13 -11 0 -8 12 -10 11 -10 -7 0 -27 -9 -33 -35 -23
-18 6 -18 7 -1 17 18 10 18 11 -3 32 -12 12 -26 19 -30 16 -5 -2 -11 2 -14 9
-3 8 -1 17 6 20 7 4 3 5 -9 2 -12 -2 -21 2 -21 10 0 7 4 11 9 8 4 -3 3 6 -4
20 -6 14 -15 26 -20 26 -5 0 -7 4 -3 9 3 5 -1 15 -8 23 -8 7 -13 21 -11 31 1
9 -3 23 -10 30 -19 19 45 81 65 64 11 -10 11 -9 0 6 -7 9 -10 17 -5 17 4 0 3
5 -3 11 -9 9 -16 8 -27 -4 -12 -12 -13 -17 -3 -20 7 -3 5 -6 -5 -6 -9 -1 -21
-9 -27 -18 -5 -10 -13 -14 -18 -9 -4 5 -2 11 5 13 6 3 9 10 6 15 -4 7 -2 8 4
4 7 -4 12 -2 12 4 0 7 10 20 23 30 12 10 19 21 16 25 -4 3 -13 0 -21 -7 -61
-57 -66 -59 -74 -46 -4 7 -4 10 0 6 11 -10 34 14 29 30 -4 8 0 10 13 5 12 -4
15 -3 10 5 -4 7 -1 15 8 18 9 3 13 11 9 18 -3 6 5 0 19 -12 24 -22 27 -22 36
-7z m1551 -21 c1 11 31 -13 31 -25 0 -5 -4 -9 -10 -9 -5 0 -9 5 -7 12 1 7 -7
12 -18 13 -14 0 -19 7 -18 23 1 37 5 39 13 7 4 -16 8 -26 9 -21z m115 30 c3
-8 2 -12 -4 -9 -6 3 -10 10 -10 16 0 14 7 11 14 -7z m-1829 -14 c3 -6 -1 -7
-10 -4 -10 4 -15 2 -13 -6 2 -7 -4 -15 -12 -17 -13 -4 -13 -3 0 6 8 6 11 11 7
11 -11 0 2 20 13 20 5 0 12 -4 15 -10z m1685 0 c0 -5 -4 -10 -10 -10 -5 0 -10
5 -10 10 0 6 5 10 10 10 6 0 10 -4 10 -10z m-106 -25 c-5 -11 -1 -14 12 -9 16
5 16 4 4 -5 -17 -12 -36 1 -26 18 10 16 16 13 10 -4z m-1628 -27 c-9 -5 -13
-14 -10 -20 5 -7 2 -8 -6 -3 -9 6 -10 2 -5 -16 7 -23 7 -23 -8 -4 -13 17 -13
21 4 36 10 9 15 19 12 23 -4 4 1 4 11 0 16 -6 17 -8 2 -16z m1904 12 c0 -5 -7
-7 -15 -4 -8 4 -15 8 -15 10 0 2 7 4 15 4 8 0 15 -4 15 -10z m-1849 -23 c-10
-9 -11 -8 -5 6 3 10 9 15 12 12 3 -3 0 -11 -7 -18z m1594 3 c-3 -5 -12 -10
-18 -10 -7 0 -6 4 3 10 19 12 23 12 15 0z m-1615 -20 c0 -5 -5 -10 -11 -10 -5
0 -7 5 -4 10 3 6 8 10 11 10 2 0 4 -4 4 -10z m1577 -10 c-1 -11 -5 -20 -9 -20
-10 0 -10 4 -2 24 8 22 13 20 11 -4z m43 0 c-24 -15 -36 -11 -14 4 10 8 21 12
24 10 2 -3 -2 -9 -10 -14z m175 2 c-3 -3 -11 0 -18 7 -9 10 -8 11 6 5 10 -3
15 -9 12 -12z m41 -28 c1 -9 0 -13 -4 -10 -3 4 -7 14 -8 22 -1 9 0 13 4 10 3
-4 7 -14 8 -22z m-1761 6 c4 -6 -1 -7 -11 -3 -13 5 -15 3 -9 -7 5 -9 4 -11 -4
-6 -6 4 -9 12 -6 17 8 12 22 12 30 -1z m1484 -24 c0 -7 -2 -7 -5 1 -6 13 -34
6 -34 -9 0 -5 4 -6 10 -3 6 4 7 -1 3 -12 -6 -16 -5 -16 10 -4 11 9 17 10 17 2
0 -6 -4 -11 -10 -11 -5 0 -10 -6 -10 -14 0 -21 -20 -30 -33 -16 -9 10 -8 12 6
7 21 -8 22 11 2 40 -14 20 -14 22 5 28 12 4 17 11 13 18 -4 7 1 6 10 -2 9 -7
17 -19 16 -25z m-1539 20 c0 -3 -4 -8 -10 -11 -5 -3 -10 -1 -10 4 0 6 5 11 10
11 6 0 10 -2 10 -4z m1594 -8 c-3 -5 -10 -6 -15 -3 -5 4 -9 -1 -9 -9 0 -9 -5
-16 -10 -16 -7 0 -7 6 -1 18 6 10 17 19 25 19 8 0 13 -4 10 -9z m-1663 -25
c-12 -20 -14 -14 -5 12 4 9 9 14 11 11 3 -2 0 -13 -6 -23z m147 -9 c-1 -5 -9
-9 -16 -10 -10 -2 -11 1 -1 12 12 14 24 13 17 -2z m1482 -34 c0 -5 -4 -10 -10
-10 -5 0 -10 5 -10 10 0 6 5 10 10 10 6 0 10 -4 10 -10z m-1520 -10 c-8 -5
-19 -10 -25 -10 -5 0 -3 5 5 10 8 5 20 10 25 10 6 0 3 -5 -5 -10z m40 0 c0 -5
-2 -10 -4 -10 -3 0 -8 5 -11 10 -3 6 -1 10 4 10 6 0 11 -4 11 -10z m1200 -13
c0 -6 3 -8 6 -4 8 8 33 -16 27 -25 -2 -4 3 -5 11 -2 9 3 16 1 16 -6 0 -6 4 -9
8 -6 4 2 13 -4 20 -14 9 -14 9 -21 0 -26 -7 -5 -8 -3 -3 6 6 10 4 12 -8 7 -10
-3 -17 -2 -17 4 0 6 -4 8 -9 4 -5 -3 -15 1 -23 8 -14 14 -52 37 -62 37 -3 0 1
-12 9 -27 8 -15 24 -27 38 -29 25 -2 101 -64 79 -64 -6 0 -12 5 -12 10 0 14
-27 12 -34 -2 -3 -10 -8 -9 -18 3 -7 9 -15 16 -18 16 -3 0 -16 3 -28 7 -17 6
-22 13 -19 27 3 10 0 22 -5 26 -6 3 -8 1 -5 -4 4 -6 -1 -17 -11 -24 -15 -13
-16 -12 -3 4 7 9 10 17 6 17 -4 0 -2 7 5 15 7 8 9 15 6 15 -4 0 -4 6 1 13 4 6
8 15 9 20 1 4 2 9 3 12 2 9 31 -7 31 -18z m-1316 -5 c3 -5 -1 -9 -9 -9 -8 0
-12 4 -9 9 3 4 7 8 9 8 2 0 6 -4 9 -8z m106 -2 c8 -5 11 -10 5 -10 -5 0 -17 5
-25 10 -8 5 -10 10 -5 10 6 0 17 -5 25 -10z m1460 0 c-8 -5 -19 -10 -25 -10
-5 0 -3 5 5 10 8 5 20 10 25 10 6 0 3 -5 -5 -10z m-1475 -41 c-1 -18 -6 -24
-23 -23 -16 0 -21 -4 -18 -13 3 -8 1 -11 -4 -8 -6 3 -10 1 -10 -6 0 -7 -3 -10
-6 -7 -12 12 16 46 34 41 13 -3 18 2 19 17 2 19 0 20 -14 8 -10 -8 -14 -8 -10
-1 4 6 1 14 -5 17 -7 2 -2 3 12 2 19 -2 25 -9 25 -27z m31 -1 c-18 -26 -22
-17 -5 14 6 11 13 17 16 15 3 -3 -2 -16 -11 -29z m1464 28 c0 -2 -7 -7 -16
-10 -8 -3 -12 -2 -9 4 6 10 25 14 25 6z m-1428 -28 c-6 -6 -8 -18 -5 -27 3
-10 0 -9 -8 3 -9 15 -9 21 -1 24 7 2 9 9 6 14 -5 7 -2 8 5 3 9 -5 9 -11 3 -17z
m-128 -13 c-9 -14 -18 -25 -21 -25 -5 0 5 18 20 38 17 22 18 13 1 -13z m1483
19 c-3 -3 -12 -4 -19 -1 -8 3 -5 6 6 6 11 1 17 -2 13 -5z m18 -24 c3 -5 1 -10
-4 -10 -6 0 -11 5 -11 10 0 6 2 10 4 10 3 0 8 -4 11 -10z m-54 -17 c13 -16 12
-17 -3 -4 -17 13 -22 21 -14 21 2 0 10 -8 17 -17z m-1344 1 c-2 -3 -17 -7 -33
-10 -17 -2 -24 -1 -17 4 13 8 58 14 50 6z m1299 -3 c-4 -5 0 -12 6 -14 8 -3 6
-6 -4 -6 -18 -1 -24 10 -11 22 9 10 15 8 9 -2z m150 -10 c9 7 14 8 13 3 -4
-17 13 -44 27 -44 8 0 14 -7 14 -16 0 -13 -3 -14 -14 -5 -11 9 -15 9 -19 -1
-2 -7 -3 -5 -2 5 2 9 -1 17 -7 17 -5 0 -6 5 -3 10 3 6 -3 10 -14 10 -15 0 -21
6 -20 23 1 17 2 18 6 4 4 -15 7 -16 19 -6z m-1570 -8 c-3 -4 6 -12 21 -18 23
-10 25 -12 10 -18 -10 -4 -16 -3 -13 2 3 5 -4 11 -15 14 -18 5 -19 27 -2 27 4
0 3 -3 -1 -7z m129 -3 c-3 -5 -11 -10 -16 -10 -6 0 -7 5 -4 10 3 6 11 10 16
10 6 0 7 -4 4 -10z m1200 -35 c16 0 12 -49 -5 -62 -8 -6 -12 -15 -8 -19 7 -7
-27 -63 -46 -76 -6 -4 -23 -6 -38 -4 -15 2 -29 -1 -30 -6 -2 -5 -13 -10 -26
-11 -12 0 -22 -6 -22 -12 0 -5 -5 -3 -10 5 -6 10 -4 22 6 37 8 13 11 23 8 23
-4 0 1 9 11 20 10 11 15 20 11 20 -4 0 1 14 11 30 9 17 22 30 27 30 6 0 5 -5
-1 -11 -9 -9 -8 -15 3 -27 8 -8 12 -17 9 -21 -4 -3 -12 2 -20 12 -12 17 -13
17 -19 0 -4 -10 -4 -14 0 -10 4 4 13 2 20 -4 20 -17 36 -2 24 22 -6 11 -8 24
-5 29 3 5 -3 13 -12 19 -13 7 -14 10 -4 11 8 0 11 3 8 6 -3 4 -2 15 3 24 9 17
12 17 52 -3 24 -12 48 -21 53 -22z m-1265 25 c0 -5 -7 -7 -15 -4 -8 4 -15 8
-15 10 0 2 7 4 15 4 8 0 15 -4 15 -10z m16 -26 c-10 -14 -20 -23 -23 -20 -4 3
-12 1 -20 -5 -8 -7 -13 -8 -13 -1 0 10 29 26 42 24 4 -1 10 8 13 19 4 11 9 18
12 15 3 -3 -2 -17 -11 -32z m99 16 c3 -5 1 -10 -4 -10 -6 0 -11 5 -11 10 0 6
2 10 4 10 3 0 8 -4 11 -10z m165 -6 c0 -8 5 -12 10 -9 6 3 10 -1 10 -9 0 -9
-6 -15 -12 -13 -7 1 -12 -4 -10 -11 1 -7 -5 -15 -13 -18 -8 -4 -15 -12 -15
-19 0 -7 -5 -15 -12 -17 -7 -3 -8 -10 -4 -17 6 -10 13 -6 25 13 10 14 21 23
24 19 4 -3 7 -2 7 3 0 5 4 15 9 23 8 12 12 12 26 -3 12 -11 14 -20 7 -29 -6
-7 -11 -16 -12 -22 -1 -5 -6 -9 -12 -7 -5 1 -7 -1 -4 -6 3 -5 -4 -14 -14 -22
-10 -8 -17 -17 -15 -21 3 -4 -2 -10 -11 -13 -8 -3 -12 -2 -9 4 3 6 1 10 -4 10
-6 0 -11 7 -11 15 0 8 -5 15 -11 15 -5 0 -7 5 -4 10 3 6 -6 15 -20 20 -24 9
-26 13 -14 28 7 9 18 22 24 27 5 6 18 22 28 38 19 30 37 36 37 11z m1140 12
c0 -2 -7 -7 -16 -10 -8 -3 -12 -2 -9 4 6 10 25 14 25 6z m80 -20 c7 -9 6 -13
-5 -13 -8 0 -12 4 -9 9 3 4 -2 8 -10 8 -8 0 -17 4 -20 9 -9 13 32 1 44 -13z
m-1469 -27 c-5 -13 -10 -19 -10 -12 -1 15 10 45 15 40 3 -2 0 -15 -5 -28z
m1284 21 c3 -5 1 -10 -4 -10 -6 0 -11 5 -11 10 0 6 2 10 4 10 3 0 8 -4 11 -10z
m39 -8 c-6 -4 -16 -17 -23 -29 -9 -18 -9 -23 0 -23 7 0 10 -3 6 -6 -9 -10 -77
-12 -71 -2 3 4 9 6 14 3 4 -3 10 2 13 9 3 8 2 17 -4 20 -5 2 -4 3 3 2 7 -2 12
-9 11 -15 -5 -21 5 -11 26 25 12 20 25 33 29 30 3 -4 2 -10 -4 -14z m136 -17
c11 -3 20 -11 20 -16 0 -6 5 -7 10 -4 11 7 13 -6 4 -29 -5 -14 -10 -13 -29 8
-13 14 -26 22 -31 18 -4 -4 -4 1 -1 10 4 12 2 15 -9 11 -9 -3 -14 2 -14 17 0
19 2 20 15 6 8 -8 24 -18 35 -21z m-113 -7 c-3 -8 -6 -5 -6 6 -1 11 2 17 5 13
3 -3 4 -12 1 -19z m105 -44 c20 -6 24 -29 8 -39 -6 -4 -8 -10 -5 -14 5 -9 -39
-6 -54 4 -6 3 -11 2 -11 -3 0 -5 -12 -7 -27 -5 -16 2 -34 5 -42 5 -8 1 -4 8
10 19 13 10 31 16 39 13 27 -10 32 -9 37 4 3 7 -1 10 -10 7 -7 -3 -20 2 -28
11 -12 15 -12 17 0 9 11 -6 13 -4 8 9 -4 10 -3 15 3 11 6 -3 10 -1 10 5 0 6
10 2 22 -9 12 -12 30 -23 40 -27z m-1333 19 c-6 -7 -17 -13 -23 -12 -7 0 -6 2
2 6 6 2 10 8 8 12 -3 4 1 8 9 8 11 0 12 -4 4 -14z m1205 -38 c-23 -18 -34 -19
-34 -3 0 6 3 9 6 5 4 -3 13 1 21 9 9 8 18 12 21 9 3 -3 -3 -12 -14 -20z m286
15 c0 -5 -4 -10 -10 -10 -5 0 -10 5 -10 10 0 6 5 10 10 10 6 0 10 -4 10 -10z
m-1460 -20 c0 -5 -5 -10 -11 -10 -5 0 -7 5 -4 10 3 6 8 10 11 10 2 0 4 -4 4
-10z m190 -2 c0 -4 16 -25 35 -47 19 -21 35 -41 35 -45 0 -3 13 -20 30 -37 16
-18 27 -36 24 -41 -3 -4 -2 -8 3 -7 4 1 13 0 18 -1 9 -2 -97 -33 -151 -45 -24
-6 -37 15 -27 42 4 10 2 14 -4 10 -6 -4 -14 4 -17 18 -4 14 -11 25 -16 25 -6
0 -10 6 -10 14 0 9 -7 12 -19 9 -10 -3 -22 0 -25 5 -4 6 2 8 14 5 17 -4 19 -2
13 13 -6 17 -5 18 12 4 11 -9 16 -10 11 -3 -4 7 -2 21 3 30 6 10 11 14 11 8 0
-5 7 4 14 21 12 27 46 44 46 22z m902 3 c-11 -7 -10 -10 3 -15 23 -9 25 -8 19
9 -4 8 -1 15 6 15 6 0 9 -4 5 -9 -3 -6 3 -15 12 -21 12 -7 13 -10 3 -7 -8 2
-23 0 -34 -5 -13 -7 -16 -7 -12 1 4 6 2 11 -3 11 -6 0 -11 -4 -11 -8 0 -5 -7
-9 -16 -9 -14 0 -14 2 2 14 10 7 14 13 10 13 -4 0 -4 5 -1 10 3 6 12 10 18 10
8 0 8 -3 -1 -9z m289 -18 c7 -16 15 -31 17 -36 7 -14 -33 7 -50 26 -24 27 -23
34 2 12 21 -19 28 -7 8 13 -7 7 -8 12 -2 12 6 0 17 -12 25 -27z m-1363 -7 c-7
-8 -15 -12 -17 -11 -5 6 10 25 20 25 5 0 4 -6 -3 -14z m-63 -25 c3 -6 -5 -15
-17 -21 -21 -10 -21 -10 -6 3 10 8 15 17 11 20 -3 4 -4 7 0 7 3 0 8 -4 12 -9z
m104 -25 c0 -7 -2 -6 -6 2 -2 6 -8 10 -12 8 -4 -3 -8 1 -8 9 0 11 4 12 14 4 7
-6 13 -17 12 -23z m-86 -1 c-3 -9 -8 -14 -10 -11 -3 3 -2 9 2 15 9 16 15 13 8
-4z m53 -10 c4 -8 11 -12 17 -8 6 4 7 1 2 -7 -6 -10 -11 -10 -20 3 -7 9 -15
14 -18 10 -4 -3 -7 -1 -7 5 0 17 20 15 26 -3z m-29 -37 c-3 -8 -6 -5 -6 6 -1
11 2 17 5 13 3 -3 4 -12 1 -19z m38 -6 c-3 -3 -11 0 -18 7 -9 10 -8 11 6 5 10
-3 15 -9 12 -12z m65 -12 c0 -5 -7 -7 -15 -4 -8 4 -15 8 -15 10 0 2 7 4 15 4
8 0 15 -4 15 -10z m-24 -20 c5 1 10 -4 12 -12 3 -11 2 -11 -6 0 -5 8 -12 13
-16 13 -20 -3 -26 0 -20 10 5 8 9 8 14 -1 4 -6 11 -11 16 -10z m44 0 c0 -11
-4 -20 -9 -20 -5 0 -7 9 -4 20 3 11 7 20 9 20 2 0 4 -9 4 -20z m5 -46 c-15
-16 -29 -19 -21 -5 4 5 0 11 -6 14 -7 2 -1 4 14 4 23 0 25 -2 13 -13z m23 -29
c-3 -3 -9 2 -12 12 -6 14 -5 15 5 6 7 -7 10 -15 7 -18z m1786 -1417 c-5 -7 -9
-17 -9 -22 0 -5 -6 -11 -12 -13 -16 -6 -17 9 -1 25 7 7 8 12 3 12 -6 0 -3 4 5
10 18 11 25 6 14 -12z m-64 -182 c0 -11 -19 -15 -25 -6 -3 5 1 10 9 10 9 0 16
-2 16 -4z m-246 -354 c7 -12 -18 -37 -41 -39 l-22 -3 22 24 c24 26 33 30 41
18z"/>
<path d="M2579 3468 c-8 -28 -5 -35 15 -30 18 5 18 7 3 10 -9 2 -15 8 -12 13
4 5 4 9 1 9 -3 0 -6 -1 -7 -2z"/>
<path d="M2579 3413 c-13 -16 -12 -17 4 -4 16 13 21 21 13 21 -2 0 -10 -8 -17
-17z"/>
<path d="M2689 3298 c-7 -25 -5 -36 6 -31 8 2 11 11 8 19 -5 12 -12 18 -14 12z"/>
<path d="M2575 3249 c-4 -6 -5 -12 -2 -15 2 -3 7 2 10 11 7 17 1 20 -8 4z"/>
<path d="M2533 3203 c0 -17 5 -16 23 1 12 13 12 15 -4 13 -10 0 -19 -7 -19
-14z"/>
<path d="M2674 3196 c1 -13 8 -20 16 -18 20 5 40 22 40 35 0 7 -4 7 -12 -1
-14 -14 -32 -16 -24 -4 3 5 -1 9 -8 9 -7 0 -12 -10 -12 -21z"/>
<path d="M2571 3137 c-7 -10 -11 -18 -7 -18 3 -1 10 -2 15 -3 5 0 13 -4 17 -8
11 -11 24 -10 24 2 0 6 -6 10 -14 10 -8 0 -16 7 -18 17 -3 15 -4 15 -17 0z"/>
<path d="M1456 3097 c3 -10 9 -15 12 -12 3 3 0 11 -7 18 -10 9 -11 8 -5 -6z"/>
<path d="M2506 3097 c3 -10 9 -15 12 -12 3 3 0 11 -7 18 -10 9 -11 8 -5 -6z"/>
<path d="M2453 2957 c0 -20 24 -30 33 -14 4 7 4 9 -1 5 -4 -4 -13 0 -20 8 -11
15 -12 15 -12 1z"/>
<path d="M2490 2909 c0 -5 5 -7 10 -4 6 3 10 8 10 11 0 2 -4 4 -10 4 -5 0 -10
-5 -10 -11z"/>
<path d="M2415 2850 c3 -5 -2 -10 -12 -10 -15 0 -16 -2 -3 -10 9 -6 17 -5 22
3 11 17 10 27 -3 27 -5 0 -7 -4 -4 -10z"/>
<path d="M2443 2833 c-7 -2 -13 -9 -13 -15 0 -7 5 -7 13 1 8 6 18 7 22 3 5 -4
5 -1 1 6 -4 6 -8 12 -9 11 -1 0 -8 -3 -14 -6z"/>
<path d="M2390 2816 c0 -2 8 -10 18 -17 15 -13 16 -12 3 4 -13 16 -21 21 -21
13z"/>
<path d="M2376 2792 c-3 -5 1 -9 9 -9 8 0 12 4 9 9 -3 4 -7 8 -9 8 -2 0 -6 -4
-9 -8z"/>
<path d="M1488 2873 c7 -3 16 -2 19 1 4 3 -2 6 -13 5 -11 0 -14 -3 -6 -6z"/>
<path d="M2776 2907 c3 -10 9 -15 12 -12 3 3 0 11 -7 18 -10 9 -11 8 -5 -6z"/>
<path d="M2666 2842 c-3 -4 4 -9 15 -9 23 -2 25 3 4 10 -8 4 -16 3 -19 -1z"/>
<path d="M1630 2651 c0 -6 5 -13 10 -16 6 -3 10 1 10 9 0 9 -4 16 -10 16 -5 0
-10 -4 -10 -9z"/>
<path d="M1776 3537 c3 -10 9 -15 12 -12 3 3 0 11 -7 18 -10 9 -11 8 -5 -6z"/>
<path d="M2836 3543 c-11 -11 -6 -21 14 -26 11 -3 20 -3 20 0 0 10 -28 32 -34
26z"/>
<path d="M1385 3523 c-11 -8 -27 -18 -35 -23 -8 -5 -12 -11 -9 -15 4 -3 23 5
43 19 20 13 33 27 29 29 -5 3 -17 -1 -28 -10z"/>
<path d="M1393 3492 c-8 -5 -9 -13 -3 -22 6 -8 10 -13 11 -10 0 3 2 13 4 23 4
19 4 19 -12 9z"/>
<path d="M1860 3372 c0 -5 7 -9 15 -9 8 0 12 4 9 9 -3 4 -9 8 -15 8 -5 0 -9
-4 -9 -8z"/>
<path d="M3030 3365 c0 -8 4 -15 10 -15 5 0 7 7 4 15 -4 8 -8 15 -10 15 -2 0
-4 -7 -4 -15z"/>
<path d="M1906 3288 c14 -24 34 -30 34 -11 0 4 -3 4 -6 0 -4 -3 -15 4 -26 16
l-19 22 17 -27z"/>
<path d="M2879 3203 c-13 -16 -12 -17 4 -4 16 13 21 21 13 21 -2 0 -10 -8 -17
-17z"/>
<path d="M2870 3176 c0 -2 7 -7 16 -10 8 -3 12 -2 9 4 -6 10 -25 14 -25 6z"/>
<path d="M1965 3150 c-6 -9 11 -50 21 -50 2 0 0 9 -6 20 -6 11 -8 25 -5 30 3
6 4 10 1 10 -3 0 -8 -4 -11 -10z"/>
<path d="M2948 3108 c-6 -15 4 -40 16 -39 20 3 26 0 20 -10 -5 -9 2 -10 22 -6
16 3 24 4 17 1 -7 -3 -9 -13 -6 -22 3 -11 2 -13 -4 -5 -4 6 -15 12 -23 14 -22
4 -61 -11 -55 -22 4 -5 14 -5 26 2 22 11 54 -5 43 -22 -3 -5 0 -9 5 -9 6 0 11
7 11 16 0 8 4 13 9 10 5 -3 15 2 22 12 13 15 12 16 -3 3 -22 -17 -24 1 -3 23
21 21 19 23 -17 21 -25 -2 -38 4 -54 23 -16 20 -22 22 -26 10z"/>
<path d="M3077 3097 c-3 -8 1 -14 8 -14 7 0 11 6 8 14 -3 7 -6 13 -8 13 -2 0
-5 -6 -8 -13z"/>
<path d="M1070 3061 c0 -11 -5 -21 -11 -21 -5 0 -7 -4 -4 -10 3 -5 1 -10 -4
-10 -16 0 -13 -17 3 -23 9 -4 13 -1 10 6 -2 7 4 22 15 34 17 18 18 23 6 33
-12 10 -15 9 -15 -9z"/>
<path d="M1142 3063 c-6 -3 -10 -8 -7 -13 3 -5 -2 -15 -10 -24 -8 -8 -11 -17
-6 -20 10 -6 44 40 39 53 -2 4 -9 6 -16 4z"/>
<path d="M2933 3054 c0 -9 6 -13 14 -9 8 3 17 5 19 5 14 0 1 16 -14 17 -10 1
-19 -5 -19 -13z"/>
<path d="M2971 3013 c3 -18 -1 -36 -8 -30 -3 4 -12 2 -20 -4 -9 -9 -13 -8 -13
0 0 6 -5 11 -11 11 -8 0 -7 -5 1 -15 7 -9 21 -13 31 -10 11 4 19 2 19 -5 0 -6
-4 -9 -9 -6 -5 3 -15 -2 -22 -11 -12 -14 -11 -15 11 -8 14 4 26 11 28 16 2 4
11 5 20 2 13 -4 12 -2 -3 11 -11 10 -15 15 -9 12 6 -3 10 4 9 16 -1 12 -7 24
-14 26 -6 2 -11 0 -10 -5z"/>
<path d="M972 2980 c-3 -8 -12 -21 -20 -29 -7 -7 -10 -21 -6 -30 3 -9 7 -23 8
-31 3 -25 29 -70 39 -70 6 0 8 -3 4 -6 -3 -4 1 -13 9 -21 8 -9 17 -13 20 -10
8 7 -15 47 -26 47 -27 0 -48 107 -26 127 5 4 6 3 3 -3 -4 -7 2 -23 13 -37 24
-30 26 -51 5 -43 -17 6 -19 -2 -6 -23 5 -8 16 -11 24 -8 12 4 14 2 10 -10 -4
-10 -2 -14 4 -10 6 4 16 0 23 -8 7 -8 20 -15 29 -16 11 0 12 -2 3 -6 -7 -3
-22 3 -33 13 -10 9 -19 12 -19 6 0 -6 5 -14 10 -17 6 -3 10 -11 10 -16 0 -6
-4 -7 -10 -4 -15 9 -12 -4 4 -21 21 -20 28 -17 22 9 -3 12 -3 16 0 10 3 -7 10
-13 15 -13 6 0 7 5 4 10 -7 11 8 14 18 3 4 -3 -2 -12 -13 -20 -24 -17 -26 -33
-3 -33 9 0 13 3 10 7 -4 3 2 12 13 20 22 15 27 45 8 41 -15 -4 -21 23 -9 41 7
11 13 9 30 -8 11 -11 17 -21 12 -21 -6 0 -13 5 -16 10 -9 15 -25 12 -25 -6 0
-8 4 -13 9 -9 6 3 15 -4 21 -15 7 -13 7 -20 1 -20 -6 0 -18 -12 -28 -26 -16
-25 -16 -27 7 -44 14 -10 28 -16 32 -14 4 3 8 0 8 -5 0 -6 5 -11 10 -11 7 0 7
6 0 20 -7 14 -7 20 0 20 5 0 10 -7 10 -17 0 -15 14 -10 16 5 0 4 4 14 8 23 9
20 5 39 -12 57 -7 8 -9 18 -6 24 4 7 2 8 -4 4 -7 -4 -12 -1 -12 8 0 9 -4 16
-9 16 -5 0 -14 14 -20 30 -5 17 -14 30 -20 30 -5 0 -8 8 -6 18 1 9 8 16 13 15
6 -2 9 4 6 12 -4 8 -1 15 6 15 6 0 8 5 5 10 -10 16 -38 12 -32 -5 4 -8 2 -17
-2 -20 -19 -11 -19 27 -1 45 11 11 15 22 10 25 -14 8 -30 -3 -30 -21 0 -8 -6
-14 -12 -13 -29 3 -56 -13 -53 -32 2 -10 0 -19 -5 -19 -17 0 -6 43 12 48 17 4
26 31 11 33 -39 7 -66 3 -71 -11z m25 -22 c2 -18 0 -20 -7 -8 -12 18 -13 30
-2 30 4 0 9 -10 9 -22z m68 -29 c-3 -15 0 -19 10 -15 8 3 16 2 19 -2 9 -15
-33 -10 -45 4 -10 13 -10 17 2 25 19 12 18 12 14 -12z m-15 -39 c0 -5 -7 -7
-15 -4 -8 4 -15 8 -15 10 0 2 7 4 15 4 8 0 15 -4 15 -10z m30 -15 c-7 -8 -18
-15 -24 -15 -6 0 -2 7 8 15 25 19 32 19 16 0z m-45 -5 c3 -5 1 -10 -4 -10 -6
0 -11 5 -11 10 0 6 2 10 4 10 3 0 8 -4 11 -10z m79 -15 c-23 -17 -34 -19 -34
-4 0 5 4 8 9 4 5 -3 12 -1 16 5 3 5 11 10 18 10 6 0 2 -7 -9 -15z m-44 -27 c0
-5 5 -6 10 -3 6 3 10 4 10 1 0 -15 -20 -13 -36 5 -16 18 -16 19 -1 13 9 -3 17
-10 17 -16z m105 -59 c0 -8 6 -19 14 -25 15 -12 7 -34 -12 -33 -9 0 -9 2 1 6
21 8 13 23 -10 19 -13 -3 -25 -5 -28 -5 -3 -1 2 -6 10 -11 9 -6 10 -10 3 -10
-23 0 -24 21 -1 40 20 17 21 21 8 31 -13 9 -13 10 0 6 8 -2 15 -10 15 -18z
m-35 -69 c8 -5 11 -10 5 -10 -5 0 -17 5 -25 10 -8 5 -10 10 -5 10 6 0 17 -5
25 -10z"/>
<path d="M973 2902 c0 -10 7 -19 14 -19 17 0 17 12 -1 27 -12 9 -15 8 -13 -8z"/>
<path d="M1259 2888 c-9 -19 -9 -21 2 -10 15 14 33 16 25 3 -3 -5 0 -14 7 -20
11 -8 13 -6 12 10 -2 34 -32 44 -46 17z"/>
<path d="M1153 2875 c0 -8 4 -12 9 -9 5 3 6 10 3 15 -9 13 -12 11 -12 -6z"/>
<path d="M1373 2721 c0 -11 5 -18 9 -15 4 3 5 11 1 19 -7 21 -12 19 -10 -4z"/>
<path d="M1209 2704 c-12 -16 -12 -17 2 -12 9 3 22 2 30 -4 11 -8 11 -9 -2 -5
-19 6 -59 -18 -59 -35 0 -6 8 -4 19 6 10 9 25 14 34 11 20 -8 31 11 18 32 -6
10 -11 14 -11 8 0 -5 -4 -4 -9 3 -6 10 -11 9 -22 -4z"/>
<path d="M1336 2612 c-3 -5 6 -14 19 -20 14 -7 25 -16 25 -22 0 -6 5 -8 10 -5
6 4 17 1 25 -5 9 -7 15 -8 15 -2 0 5 -14 15 -31 22 -17 7 -37 19 -44 27 -8 7
-16 9 -19 5z"/>
<path d="M1406 2612 c-3 -5 1 -9 9 -9 8 0 12 4 9 9 -3 4 -7 8 -9 8 -2 0 -6 -4
-9 -8z"/>
<path d="M3345 2450 c-3 -6 1 -7 9 -4 18 7 21 14 7 14 -6 0 -13 -4 -16 -10z"/>
<path d="M3386 2271 c-3 -5 1 -14 8 -20 10 -9 16 -9 21 -1 4 6 1 9 -7 8 -7 -2
-12 3 -10 10 2 14 -4 16 -12 3z"/>
<path d="M3390 2194 c0 -20 27 -37 36 -23 4 7 3 9 -4 5 -6 -3 -15 2 -21 11 -6
10 -11 13 -11 7z"/>
<path d="M3386 2144 c7 -38 20 -51 19 -19 -1 14 -7 31 -13 37 -8 8 -10 4 -6
-18z"/>
<path d="M3406 2072 c-3 -5 1 -9 9 -9 8 0 12 4 9 9 -3 4 -7 8 -9 8 -2 0 -6 -4
-9 -8z"/>
<path d="M3353 2022 c-8 -14 -8 -19 1 -19 7 0 13 9 13 19 1 10 1 18 0 18 -1 0
-7 -8 -14 -18z"/>
<path d="M3341 1981 c-19 -12 -2 -36 27 -37 26 -1 17 12 -13 19 -18 4 -18 5 5
15 14 6 18 11 10 11 -8 0 -21 -3 -29 -8z"/>
<path d="M3350 1930 c-9 -6 -10 -10 -3 -10 6 0 15 5 18 10 8 12 4 12 -15 0z"/>
<path d="M3375 1870 c3 -5 8 -10 11 -10 2 0 4 5 4 10 0 6 -5 10 -11 10 -5 0
-7 -4 -4 -10z"/>
<path d="M3428 1659 c-4 -9 2 -21 15 -29 19 -11 20 -11 11 1 -6 8 -13 21 -16
28 -4 13 -5 13 -10 0z"/>
<path d="M3430 1601 c0 -6 4 -13 10 -16 6 -3 7 1 4 9 -7 18 -14 21 -14 7z"/>
<path d="M3475 1551 c-3 -5 -2 -12 3 -15 5 -3 9 1 9 9 0 17 -3 19 -12 6z"/>
<path d="M3440 1530 c-12 -7 -10 -9 7 -7 12 0 19 5 17 9 -6 10 -6 10 -24 -2z"/>
<path d="M3438 1487 c-3 -19 -2 -25 4 -19 6 6 8 18 6 28 -3 14 -5 12 -10 -9z"/>
<path d="M3438 1433 c7 -3 16 -2 19 1 4 3 -2 6 -13 5 -11 0 -14 -3 -6 -6z"/>
<path d="M3453 1408 c4 -10 -1 -18 -13 -21 -11 -3 -18 -14 -18 -28 -1 -36 -9
-85 -16 -97 -3 -5 2 -16 12 -23 15 -12 16 -12 5 1 -7 10 -8 21 -3 30 5 8 6 18
3 24 -4 5 0 7 9 4 8 -4 15 -1 15 7 0 7 -6 11 -14 8 -9 -4 -11 0 -7 11 3 9 11
13 17 9 5 -3 7 -1 3 5 -3 5 0 13 6 15 8 3 6 6 -4 6 -21 1 -24 21 -4 21 20 0
27 13 14 30 -8 13 -9 12 -5 -2z"/>
<path d="M3435 1269 c-4 -6 -4 -13 -1 -16 3 -4 6 -1 6 6 0 7 5 9 12 5 7 -4 8
-3 4 4 -9 15 -13 15 -21 1z"/>
<path d="M3455 1219 c-4 -6 -5 -12 -2 -15 2 -3 7 2 10 11 7 17 1 20 -8 4z"/>
<path d="M3385 1120 c-4 -11 -11 -17 -17 -14 -7 5 -8 2 -4 -5 5 -7 1 -20 -8
-30 -14 -16 -14 -19 0 -37 15 -19 15 -19 6 1 -10 21 9 50 24 37 4 -4 4 -1 0 5
-9 16 12 56 25 48 5 -4 9 -1 9 4 0 19 -28 12 -35 -9z"/>
<path d="M3375 1050 c-3 -5 -1 -10 4 -10 6 0 11 5 11 10 0 6 -2 10 -4 10 -3 0
-8 -4 -11 -10z"/>
<path d="M3363 993 c-7 -2 -13 -9 -13 -15 0 -7 5 -7 13 1 8 6 18 7 22 3 5 -4
5 -1 1 6 -4 6 -8 12 -9 11 -1 0 -8 -3 -14 -6z"/>
<path d="M3331 964 c0 -11 3 -14 6 -6 3 7 2 16 -1 19 -3 4 -6 -2 -5 -13z"/>
<path d="M3302 929 c9 -9 15 -19 13 -23 -3 -3 -2 -4 2 -1 13 10 12 37 -2 32
-7 -3 -17 -2 -21 1 -5 4 -2 0 8 -9z"/>
<path d="M3274 908 c-4 -7 -4 -10 1 -6 4 4 14 0 22 -10 13 -15 13 -15 3 6 -12
25 -16 27 -26 10z"/>
<path d="M3195 792 c-28 -25 -27 -37 3 -39 22 -1 24 0 8 9 -17 9 -17 11 0 29
21 24 16 24 -11 1z"/>
<path d="M3145 740 c-4 -6 -2 -17 4 -24 11 -13 5 -26 -11 -26 -5 0 -6 5 -2 11
4 8 0 8 -15 0 -28 -15 -27 -16 13 -17 32 0 42 14 23 32 -4 4 -7 12 -7 18 1 6
10 0 22 -14 12 -15 19 -18 15 -8 -4 11 0 19 11 22 13 3 12 4 -3 3 -11 -1 -25
2 -32 6 -6 4 -15 3 -18 -3z"/>
<path d="M3156 657 c3 -10 9 -15 12 -12 3 3 0 11 -7 18 -10 9 -11 8 -5 -6z"/>
<path d="M3105 610 c3 -5 11 -10 16 -10 6 0 7 5 4 10 -3 6 -11 10 -16 10 -6 0
-7 -4 -4 -10z"/>
<path d="M2958 532 c-12 -15 -11 -16 5 -3 17 13 18 13 15 -3 -2 -12 4 -20 15
-22 14 -2 15 1 8 10 -6 7 -8 15 -5 18 2 3 -2 8 -10 11 -8 3 -20 -2 -28 -11z"/>
<path d="M2883 463 c-17 -6 -17 -20 0 -26 8 -3 13 3 13 14 0 11 0 19 -1 18 0
0 -6 -3 -12 -6z"/>
<path d="M2890 409 c0 -5 5 -7 10 -4 6 3 10 8 10 11 0 2 -4 4 -10 4 -5 0 -10
-5 -10 -11z"/>
<path d="M1310 390 c0 -5 5 -10 11 -10 5 0 7 5 4 10 -3 6 -8 10 -11 10 -2 0
-4 -4 -4 -10z"/>
<path d="M2830 390 c0 -5 5 -10 10 -10 6 0 10 5 10 10 0 6 -4 10 -10 10 -5 0
-10 -4 -10 -10z"/>
<path d="M1395 339 c-4 -6 -5 -12 -2 -15 2 -3 7 2 10 11 7 17 1 20 -8 4z"/>
<path d="M2696 325 c-9 -26 -7 -32 5 -12 6 10 9 21 6 23 -2 3 -7 -2 -11 -11z"/>
<path d="M1436 308 c3 -5 10 -6 15 -3 13 9 11 12 -6 12 -8 0 -12 -4 -9 -9z"/>
<path d="M2657 314 c-11 -11 -8 -26 3 -19 6 3 10 1 10 -6 0 -7 3 -10 6 -6 3 3
2 13 -3 22 -5 8 -12 12 -16 9z"/>
<path d="M1477 300 c7 -8 20 -15 29 -16 9 -1 13 1 9 4 -4 4 -10 7 -13 7 -4 0
-14 4 -22 9 -12 7 -13 6 -3 -4z"/>
<path d="M2700 287 c-12 -19 -11 -21 2 -10 8 7 18 10 21 6 4 -3 7 -1 7 5 0 21
-16 21 -30 -1z"/>
<path d="M2616 284 c-3 -8 -10 -13 -15 -10 -5 3 -12 -1 -15 -9 -4 -12 -2 -13
13 -6 12 7 22 6 31 -2 12 -10 12 -9 2 5 -10 13 -10 17 0 20 8 3 9 6 1 11 -6 4
-14 0 -17 -9z"/>
<path d="M1530 270 c0 -5 5 -10 11 -10 5 0 7 5 4 10 -3 6 -8 10 -11 10 -2 0
-4 -4 -4 -10z"/>
<path d="M2560 265 c-7 -8 -16 -12 -21 -9 -5 3 -9 0 -9 -6 0 -7 7 -9 16 -6 12
5 15 2 10 -9 -3 -10 -2 -13 5 -10 6 4 8 13 5 20 -2 7 1 18 7 24 6 6 8 11 5 11
-3 0 -11 -7 -18 -15z"/>
<path d="M2650 270 c0 -5 5 -10 11 -10 5 0 7 5 4 10 -3 6 -8 10 -11 10 -2 0
-4 -4 -4 -10z"/>
<path d="M2513 224 c0 -14 2 -21 6 -17 3 4 9 10 12 13 4 3 1 10 -6 17 -10 9
-12 6 -12 -13z"/>
<path d="M1635 230 c-3 -5 -1 -10 4 -10 6 0 11 5 11 10 0 6 -2 10 -4 10 -3 0
-8 -4 -11 -10z"/>
<path d="M2420 216 c0 -3 9 -10 20 -16 11 -6 20 -8 20 -6 0 3 -9 10 -20 16
-11 6 -20 8 -20 6z"/>
<path d="M2363 203 c-7 -2 -13 -9 -13 -14 0 -6 5 -7 12 -3 8 5 9 2 5 -10 -4
-9 -3 -15 2 -11 6 3 9 14 8 25 -1 11 -1 20 -2 19 0 0 -6 -3 -12 -6z"/>
<path d="M2395 200 c-4 -6 -4 -14 -1 -17 3 -4 6 -1 6 6 0 7 4 10 10 6 5 -3 7
-12 3 -20 -3 -8 -3 -15 0 -15 3 0 7 6 10 14 7 19 -18 42 -28 26z"/>
<path d="M1720 190 c-9 -6 -10 -10 -3 -10 6 0 15 5 18 10 8 12 4 12 -15 0z"/>
<path d="M1790 191 c0 -6 4 -13 10 -16 6 -3 7 1 4 9 -7 18 -14 21 -14 7z"/>
<path d="M1753 175 c0 -8 4 -12 9 -9 5 3 6 10 3 15 -9 13 -12 11 -12 -6z"/>
<path d="M2260 176 c-5 -5 -10 -15 -10 -20 0 -6 5 -3 11 7 6 9 14 15 19 12 5
-3 11 -2 14 3 7 12 -21 11 -34 -2z"/>
<path d="M1893 166 c-4 -6 -3 -8 2 -4 4 4 14 0 22 -10 12 -16 13 -16 6 2 -4
13 -3 17 5 12 6 -3 13 -3 16 2 2 4 -7 8 -20 8 -14 0 -28 -5 -31 -10z"/>
<path d="M2165 171 c-3 -5 -1 -12 5 -16 6 -4 7 -11 4 -17 -4 -7 -2 -8 5 -4 8
6 9 12 2 20 -6 7 -8 16 -4 19 3 4 4 7 0 7 -3 0 -8 -4 -12 -9z"/>
<path d="M2205 170 c-16 -7 -17 -9 -3 -9 9 -1 20 4 23 9 7 11 7 11 -20 0z"/>
<path d="M2033 153 c0 -17 13 -17 20 0 3 8 0 14 -7 14 -7 0 -13 -6 -13 -14z"/>
<path d="M1953 145 c0 -8 4 -12 9 -9 4 3 8 9 8 15 0 5 -4 9 -8 9 -5 0 -9 -7
-9 -15z"/>
<path d="M2066 152 c-3 -4 4 -9 15 -9 23 -2 25 3 4 10 -8 4 -16 3 -19 -1z"/>
<path d="M2233 142 c0 -12 5 -22 9 -22 11 0 10 12 -2 30 -7 12 -9 10 -7 -8z"/>
<path d="M2278 153 c7 -3 16 -2 19 1 4 3 -2 6 -13 5 -11 0 -14 -3 -6 -6z"/>
<path d="M2330 149 c0 -5 5 -7 10 -4 6 3 10 8 10 11 0 2 -4 4 -10 4 -5 0 -10
-5 -10 -11z"/>
</g>
</svg>
